<svg width="63" height="32" viewBox="0 0 63 32" fill="none" xmlns="http://www.w3.org/2000/svg">
<path d="M60.6667 19.5864C60.1926 19.5864 59.7863 19.758 59.4477 20.092C59.1091 20.4351 58.9375 20.8413 58.9375 21.3063C58.9375 21.7712 59.1091 22.1865 59.4477 22.5251C59.7863 22.8636 60.1926 23.0306 60.6667 23.0306C61.1408 23.0306 61.5426 22.8591 61.8857 22.5251C62.2198 22.182 62.3914 21.7757 62.3914 21.3063C62.3914 20.8368 62.2198 20.4306 61.8857 20.092C61.5426 19.7534 61.1363 19.5864 60.6667 19.5864Z" fill="#949494"/>
<path d="M9.1562 16.8329L7.84236 7.30371L5.1244 8.32388L5.63007 13.3841H5.00701H4.38847L4.88511 8.41416L1.86465 9.5517L0 23.0577H3.44938L4.24851 14.7654H5.00701H5.76551L6.56465 23.0577H9.22844L8.11777 22.8636L9.1562 16.8329Z" fill="#949494"/>
<path d="M14.6692 21.9563L12.4704 21.5772L14.4299 10.2063V9.56079L10.7548 11.2039L8.83594 22.3536L15.6444 23.5272L15.7437 22.9494C15.1974 22.656 14.8633 22.313 14.6737 21.9609" fill="#949494"/>
<path d="M20.2267 8.30581V20.2951C20.2267 20.6156 20.1364 20.8729 19.9693 21.0535C19.7932 21.2385 19.5946 21.3288 19.3598 21.3288C19.125 21.3288 18.9128 21.243 18.7413 21.0625C18.5742 20.8819 18.493 20.6246 18.493 20.2951V7.95823L15.0391 7.26758V20.9857C15.0391 21.8524 15.7298 22.4573 17.1159 22.8004C17.5719 22.9132 18.2672 23.0035 19.1928 23.0577H19.5314C20.4569 22.999 21.1477 22.9132 21.6082 22.8004C22.8905 22.4799 23.5722 21.9337 23.6625 21.1663L22.8814 8.83846L20.2267 8.30581Z" fill="#949494"/>
<path d="M27.6034 19.776L27.328 8.12976L23.5039 8.89715L24.4972 24.6105L29.9557 25.0168L32.6691 7.05542L29.6983 7.65127L27.6034 19.776Z" fill="#949494"/>
<path d="M36.0017 20.399L35.6767 6.45065L32.8594 7.01942L32.9 25.2336L38.3585 25.6398L41.3564 11.6644V5.30859L38.5165 5.88188L36.0017 20.399Z" fill="#949494"/>
<path d="M45.4246 6.37844L41.9707 5.34473V23.0353H48.883V21.654H45.4246V14.7475H48.883V13.3662H45.4246V6.37844Z" fill="#949494"/>
<path d="M55.8446 21.2748L53.8942 14.6482L57.2126 13.6732L56.8198 12.3461L53.5014 13.3211L52.0476 8.3692L48.1016 7.18652L52.9189 23.577L58.4181 21.961C58.3594 21.7578 58.3188 21.5457 58.3188 21.32C58.3188 21.0311 58.3729 20.7602 58.4677 20.5075L55.8401 21.2794L55.8446 21.2748Z" fill="#949494"/>
<path d="M58.9375 9.13638V18.2006H62.3914V7.4707L58.9375 9.13638Z" fill="#949494"/>
<path d="M5.0076 3.02441H2.7637L1.86523 9.55172L4.8857 8.41418L5.0076 7.1683L5.12498 8.3239L7.84295 7.30372L7.25601 3.02441H5.0076Z" fill="#949494"/>
<path d="M15.6306 3.20498V3.19596L12.2309 2.60913L10.75 11.1993L14.4251 9.55624V5.10088C14.4251 4.50503 14.6644 3.76021 15.6306 3.20498Z" fill="#949494"/>
<path d="M21.6082 3.28171C21.1477 3.16886 20.4569 3.07858 19.5314 3.02441H19.1928C18.2672 3.07858 17.5764 3.16886 17.1159 3.28171C15.7344 3.6293 15.0391 4.23418 15.0391 5.09636V7.2631L18.493 7.95375V5.78701C18.493 5.462 18.5832 5.20921 18.7503 5.02865C18.9264 4.84357 19.125 4.75329 19.3598 4.75329C19.5946 4.75329 19.8068 4.83906 19.9784 5.01962C20.1454 5.20018 20.2312 5.45748 20.2312 5.78701V8.30133L22.8859 8.83398L22.5564 3.60673C22.2855 3.48033 21.9739 3.372 21.6127 3.2772" fill="#949494"/>
<path d="M35.546 0.934376L30.9228 0.591309L29.6992 7.65127L32.67 7.05541L32.8596 5.80051V7.0193L35.6769 6.45053L35.546 0.934376Z" fill="#949494"/>
<path d="M43.342 2.39228L43.5272 1.52558L39.3238 1.21411L38.5156 5.88163L41.3555 5.30835V2.39228H43.342Z" fill="#949494"/>
<path d="M27.1428 0.311469L22.9395 0L23.5038 8.89717L27.3279 8.12979L27.1428 0.311469Z" fill="#949494"/>
<path d="M46.6346 4.38764L46.5037 3.94075L48.883 3.24559V3.00635H41.9707V5.34462L45.4246 6.37834V4.38764H46.6346Z" fill="#949494"/>
<path d="M54.2921 3.73313L53.8993 2.40601L47.2715 4.35607L48.1067 7.18186L52.0482 8.36905L50.9737 4.70817L54.2921 3.73313Z" fill="#949494"/>
<path d="M58.9375 3.00635V9.13641L62.3914 7.47073V3.00635H58.9375Z" fill="#949494"/>
<path d="M12.6833 31.666V31.9685H10.918V29.5354H12.6336V29.8378H11.2656V30.5872H12.4846V30.8806H11.2656V31.666H12.6833Z" fill="#949494"/>
<path d="M13.0201 31.6886L13.1466 31.4177C13.3272 31.5802 13.6342 31.6976 13.9502 31.6976C14.3701 31.6976 14.5507 31.5351 14.5507 31.3229C14.5507 30.7271 13.0788 31.1063 13.0788 30.2035C13.0788 29.8288 13.3723 29.5083 14.0089 29.5083C14.2933 29.5083 14.5868 29.585 14.79 29.725L14.6771 30.0048C14.4649 29.8694 14.2256 29.8062 14.0089 29.8062C13.5935 29.8062 13.4174 29.9778 13.4174 30.1899C13.4174 30.7858 14.8893 30.4111 14.8893 31.3049C14.8893 31.675 14.5913 31.9955 13.9457 31.9955C13.5755 31.9955 13.2098 31.8691 13.0156 31.6886" fill="#949494"/>
<path d="M15.8509 29.8378H15.0156V29.5354H17.0293V29.8378H16.194V31.9685H15.8509V29.8378Z" fill="#949494"/>
<path d="M17.3418 30.9211V29.5398H17.6894V30.9075C17.6894 31.4447 17.9378 31.6885 18.3757 31.6885C18.8137 31.6885 19.062 31.4447 19.062 30.9075V29.5398H19.4006V30.9211C19.4006 31.6253 19.0168 31.9954 18.3712 31.9954C17.7256 31.9954 17.3418 31.6253 17.3418 30.9211Z" fill="#949494"/>
<path d="M20.1094 29.5353H21.1343C21.9153 29.5353 22.4481 30.0273 22.4481 30.7496C22.4481 31.4718 21.9153 31.9638 21.1343 31.9638H20.1094V29.5308V29.5353ZM21.1162 31.6659C21.7167 31.6659 22.1004 31.2958 22.1004 30.7541C22.1004 30.2124 21.7167 29.8422 21.1162 29.8422H20.4615V31.6704H21.1162V31.6659Z" fill="#949494"/>
<path d="M23.3281 29.5354H22.9805V31.9685H23.3281V29.5354Z" fill="#949494"/>
<path d="M23.8613 30.7543C23.8613 30.0411 24.4121 29.5129 25.1571 29.5129C25.9021 29.5129 26.4438 30.0411 26.4438 30.7543C26.4438 31.4675 25.893 31.9957 25.1571 31.9957C24.4212 31.9957 23.8613 31.463 23.8613 30.7543ZM26.0962 30.7543C26.0962 30.2171 25.6944 29.8199 25.1571 29.8199C24.6198 29.8199 24.209 30.2171 24.209 30.7543C24.209 31.2915 24.6108 31.6887 25.1571 31.6887C25.7034 31.6887 26.0962 31.2915 26.0962 30.7543Z" fill="#949494"/>
<path d="M28.2578 29.5354H27.9102V31.9685H28.2578V29.5354Z" fill="#949494"/>
<path d="M31.0812 29.5354V31.9685H30.7923L29.334 30.1538V31.9685H28.9863V29.5354H29.2708L30.7336 31.35V29.5354H31.0812Z" fill="#949494"/>
<path d="M32.2897 29.8378H31.459V29.5354H33.4681V29.8378H32.6329V31.9685H32.2897V29.8378Z" fill="#949494"/>
<path d="M35.613 31.666V31.9685H33.8477V29.5354H35.5633V29.8378H34.1953V30.5872H35.4143V30.8806H34.1953V31.666H35.613Z" fill="#949494"/>
<path d="M37.8031 31.9683L37.2794 31.2235C37.2297 31.2235 37.18 31.2326 37.1259 31.2326H36.5254V31.9729H36.1777V29.5398H37.1259C37.7579 29.5398 38.1417 29.8603 38.1417 30.3884C38.1417 30.7631 37.9476 31.0339 37.609 31.1558L38.1869 31.9729H37.8076L37.8031 31.9683ZM37.7895 30.3839C37.7895 30.0363 37.5548 29.8377 37.1123 29.8377H36.5209V30.9301H37.1123C37.5548 30.9301 37.7895 30.727 37.7895 30.3794" fill="#949494"/>
<path d="M40.2502 31.3591H38.959L38.6926 31.9685H38.3359L39.4376 29.5354H39.7807L40.8868 31.9685H40.5211L40.2548 31.3591H40.2502ZM40.1283 31.0837L39.6046 29.892L39.0809 31.0837H40.1283Z" fill="#949494"/>
<path d="M41.0137 30.7543C41.0137 30.0366 41.5645 29.5129 42.3004 29.5129C42.6752 29.5129 43.0002 29.6393 43.226 29.8921L43.0002 30.1133C42.8106 29.9147 42.5849 29.8244 42.314 29.8244C41.7631 29.8244 41.3568 30.2216 41.3568 30.7588C41.3568 31.296 41.7631 31.6932 42.314 31.6932C42.5803 31.6932 42.8106 31.5984 43.0002 31.3998L43.226 31.6165C43.0047 31.8648 42.6752 32.0002 42.3004 32.0002C41.5645 32.0002 41.0137 31.4765 41.0137 30.7588" fill="#949494"/>
<path d="M44.179 29.8378H43.3438V29.5354H45.3574V29.8378H44.5221V31.9685H44.179V29.8378Z" fill="#949494"/>
<path d="M46.0781 29.5354H45.7305V31.9685H46.0781V29.5354Z" fill="#949494"/>
<path d="M48.8966 29.5354L47.8311 31.9685H47.488L46.418 29.5354H46.7927L47.6686 31.5351L48.549 29.5354H48.8966Z" fill="#949494"/>
<path d="M48.9863 30.7543C48.9863 30.0411 49.5371 29.5129 50.2821 29.5129C51.0271 29.5129 51.5688 30.0411 51.5688 30.7543C51.5688 31.4675 51.018 31.9957 50.2821 31.9957C49.5462 31.9957 48.9863 31.463 48.9863 30.7543ZM51.2212 30.7543C51.2212 30.2171 50.8194 29.8199 50.2821 29.8199C49.7448 29.8199 49.334 30.2171 49.334 30.7543C49.334 31.2915 49.7358 31.6887 50.2821 31.6887C50.8284 31.6887 51.2212 31.2915 51.2212 30.7543Z" fill="#949494"/>
</svg>
