<svg width="30" height="28" viewBox="0 0 30 28" fill="none" xmlns="http://www.w3.org/2000/svg">
<path d="M8 7C8 7.55228 7.55228 8 7 8L1 8C0.447716 8 0 7.55228 0 7V1C0 0.447715 0.447716 0 1 0L7 0C7.55228 0 8 0.447715 8 1V7ZM29.9951 12.4131C29.7897 21.0587 23.1548 28 15 28C6.84521 28 0.210291 21.0587 0.00488281 12.4131L0 12L7.5 12C7.5 16.4183 10.8579 20 15 20C19.0126 20 22.2892 16.6389 22.4902 12.4121L22.5 12L30 12L29.9951 12.4131ZM30 7C30 7.55228 29.5523 8 29 8L23 8C22.4477 8 22 7.55228 22 7V1C22 0.447715 22.4477 0 23 0L29 0C29.5523 0 30 0.447715 30 1V7Z" fill="#4B40D7"/>
</svg>
